Coordinates
version=1
nRows=31
nColumns=21
inDegrees=no
endheader
time	ra_wr_s_p	ra_wr_e_f	ra_cmc1_ad_ab	ra_cmc1_f_e	ra_mcp1_f_e	ra_ip1_f_e	ra_mcp2_e_f	ra_pip2_e_f	ra_dip2_e_f	ra_mcp3_e_f	ra_pip3_e_f	ra_dip3_e_f	ra_mcp4_e_f	ra_pip4_e_f	ra_dip4_e_f	ra_mcp5_e_f	ra_pip5_e_f	ra_dip5_e_f	ra_el_e_f	ra_wr_ad_ab
0.250000	-0.561163	0.087300	0.633637	0.633637	-0.570251	-1.140502	1.140502	1.520670	1.140502	1.140502	1.520670	1.140502	1.140502	1.520670	1.140502	1.140502	1.520670	1.140502	1.129096	0.000000
0.251000	-0.566447	0.087300	0.635494	0.635494	-0.571923	-1.143846	1.143846	1.525128	1.143846	1.143846	1.525128	1.143846	1.143846	1.525128	1.143846	1.143846	1.525128	1.143846	1.118362	0.000000
0.252000	-0.571731	0.087300	0.637352	0.637352	-0.573595	-1.147190	1.147190	1.529586	1.147190	1.147190	1.529586	1.147190	1.147190	1.529586	1.147190	1.147190	1.529586	1.147190	1.107630	0.000000
0.253000	-0.577012	0.087300	0.639209	0.639209	-0.575266	-1.150532	1.150532	1.534042	1.150532	1.150532	1.534042	1.150532	1.150532	1.534042	1.150532	1.150532	1.534042	1.150532	1.096903	0.000000
0.254000	-0.582290	0.087300	0.641064	0.641064	-0.576936	-1.153871	1.153871	1.538495	1.153871	1.153871	1.538495	1.153871	1.153871	1.538495	1.153871	1.153871	1.538495	1.153871	1.086183	0.000000
0.255000	-0.587563	0.087300	0.642918	0.642918	-0.578604	-1.157209	1.157209	1.542945	1.157209	1.157209	1.542945	1.157209	1.157209	1.542945	1.157209	1.157209	1.542945	1.157209	1.075471	0.000000
0.256000	-0.592832	0.087300	0.644771	0.644771	-0.580271	-1.160543	1.160543	1.547390	1.160543	1.160543	1.547390	1.160543	1.160543	1.547390	1.160543	1.160543	1.547390	1.160543	1.064769	0.000000
0.257000	-0.598095	0.087300	0.646621	0.646621	-0.581937	-1.163873	1.163873	1.551831	1.163873	1.163873	1.551831	1.163873	1.163873	1.551831	1.163873	1.163873	1.551831	1.163873	1.054079	0.000000
0.258000	-0.603351	0.087300	0.648469	0.648469	-0.583600	-1.167199	1.167199	1.556265	1.167199	1.167199	1.556265	1.167199	1.167199	1.556265	1.167199	1.167199	1.556265	1.167199	1.043403	0.000000
0.259000	-0.608600	0.087300	0.650314	0.650314	-0.585260	-1.170520	1.170520	1.560694	1.170520	1.170520	1.560694	1.170520	1.170520	1.560694	1.170520	1.170520	1.560694	1.170520	1.032742	0.000000
0.260000	-0.613840	0.087300	0.652156	0.652156	-0.586918	-1.173836	1.173836	1.565115	1.173836	1.173836	1.565115	1.173836	1.173836	1.565115	1.173836	1.173836	1.565115	1.173836	1.022099	0.000000
0.261000	-0.619070	0.087300	0.653995	0.653995	-0.588573	-1.177146	1.177146	1.569528	1.177146	1.177146	1.569528	1.177146	1.177146	1.569528	1.177146	1.177146	1.569528	1.177146	1.011475	0.000000
0.262000	-0.624290	0.087300	0.655830	0.655830	-0.590225	-1.180449	1.180449	1.573932	1.180449	1.180449	1.573932	1.180449	1.180449	1.573932	1.180449	1.180449	1.573932	1.180449	1.000872	0.000000
0.263000	-0.629499	0.087300	0.657661	0.657661	-0.591873	-1.183745	1.183745	1.578327	1.183745	1.183745	1.578327	1.183745	1.183745	1.578327	1.183745	1.183745	1.578327	1.183745	0.990292	0.000000
0.264000	-0.634696	0.087300	0.659488	0.659488	-0.593517	-1.187034	1.187034	1.582712	1.187034	1.187034	1.582712	1.187034	1.187034	1.582712	1.187034	1.187034	1.582712	1.187034	0.979736	0.000000
0.265000	-0.639880	0.087300	0.661311	0.661311	-0.595157	-1.190314	1.190314	1.587086	1.190314	1.190314	1.587086	1.190314	1.190314	1.587086	1.190314	1.190314	1.587086	1.190314	0.969207	0.000000
0.266000	-0.645050	0.087300	0.663129	0.663129	-0.596793	-1.193586	1.193586	1.591448	1.193586	1.193586	1.591448	1.193586	1.193586	1.591448	1.193586	1.193586	1.591448	1.193586	0.958705	0.000000
0.267000	-0.650206	0.087300	0.664941	0.664941	-0.598424	-1.196848	1.196848	1.595798	1.196848	1.196848	1.595798	1.196848	1.196848	1.595798	1.196848	1.196848	1.595798	1.196848	0.948233	0.000000
0.268000	-0.655346	0.087300	0.666748	0.666748	-0.600051	-1.200101	1.200101	1.600135	1.200101	1.200101	1.600135	1.200101	1.200101	1.600135	1.200101	1.200101	1.600135	1.200101	0.937792	0.000000
0.269000	-0.660470	0.087300	0.668550	0.668550	-0.601672	-1.203344	1.203344	1.604458	1.203344	1.203344	1.604458	1.203344	1.203344	1.604458	1.203344	1.203344	1.604458	1.203344	0.927383	0.000000
0.270000	-0.665577	0.087300	0.670345	0.670345	-0.603288	-1.206576	1.206576	1.608767	1.206576	1.206576	1.608767	1.206576	1.206576	1.608767	1.206576	1.206576	1.608767	1.206576	0.917010	0.000000
0.271000	-0.670667	0.087300	0.672135	0.672135	-0.604898	-1.209796	1.209796	1.613062	1.209796	1.209796	1.613062	1.209796	1.209796	1.613062	1.209796	1.209796	1.613062	1.209796	0.906672	0.000000
0.272000	-0.675738	0.087300	0.673917	0.673917	-0.606503	-1.213005	1.213005	1.617340	1.213005	1.213005	1.617340	1.213005	1.213005	1.617340	1.213005	1.213005	1.617340	1.213005	0.896372	0.000000
0.273000	-0.680789	0.087300	0.675693	0.675693	-0.608101	-1.216202	1.216202	1.621602	1.216202	1.216202	1.621602	1.216202	1.216202	1.621602	1.216202	1.216202	1.621602	1.216202	0.886111	0.000000
0.274000	-0.685821	0.087300	0.677462	0.677462	-0.609693	-1.219386	1.219386	1.625848	1.219386	1.219386	1.625848	1.219386	1.219386	1.625848	1.219386	1.219386	1.625848	1.219386	0.875890	0.000000
0.275000	-0.690832	0.087300	0.679224	0.679224	-0.611278	-1.222557	1.222557	1.630076	1.222557	1.222557	1.630076	1.222557	1.222557	1.630076	1.222557	1.222557	1.630076	1.222557	0.865712	0.000000
0.276000	-0.695822	0.087300	0.680978	0.680978	-0.612857	-1.225714	1.225714	1.634286	1.225714	1.225714	1.634286	1.225714	1.225714	1.634286	1.225714	1.225714	1.634286	1.225714	0.855577	0.000000
0.277000	-0.700789	0.087300	0.682725	0.682725	-0.614429	-1.228858	1.228858	1.638477	1.228858	1.228858	1.638477	1.228858	1.228858	1.638477	1.228858	1.228858	1.638477	1.228858	0.845487	0.000000
0.278000	-0.705734	0.087300	0.684463	0.684463	-0.615993	-1.231987	1.231987	1.642649	1.231987	1.231987	1.642649	1.231987	1.231987	1.642649	1.231987	1.231987	1.642649	1.231987	0.835443	0.000000
0.279000	-0.710655	0.087300	0.686193	0.686193	-0.617550	-1.235101	1.235101	1.646801	1.235101	1.235101	1.646801	1.235101	1.235101	1.646801	1.235101	1.235101	1.646801	1.235101	0.825447	0.000000
0.280000	-0.715553	0.087300	0.687915	0.687915	-0.619100	-1.238200	1.238200	1.650933	1.238200	1.238200	1.650933	1.238200	1.238200	1.650933	1.238200	1.238200	1.650933	1.238200	0.815500	0.000000
